<?xml version="1.0" encoding="utf-8"?>
<!-- Generator: Adobe Illustrator 15.1.0, SVG Export Plug-In . SVG Version: 6.00 Build 0)  -->
<!DOCTYPE svg PUBLIC "-//W3C//DTD SVG 1.1//EN" "http://www.w3.org/Graphics/SVG/1.1/DTD/svg11.dtd">
<svg version="1.1" id="Layer_1" xmlns="http://www.w3.org/2000/svg" xmlns:xlink="http://www.w3.org/1999/xlink" x="0px" y="0px"
	 width="258.59px" height="62.271px" viewBox="0 0 258.59 62.271" enable-background="new 0 0 258.59 62.271" xml:space="preserve">
<path fill="#5E79BC" d="M257.067,36.735c-1.34,0-2.133-0.427-2.864-1.584l-7.492-12.062l5.178-4.144
	c0.914-0.73,1.523-0.974,3.168-0.974h1.584v-4.874h-17.789v4.874h3.046c0.731,0,1.341,0.182,1.341,0.67
	c0,0.243-0.183,0.914-0.976,1.522l-7.615,6.091V1.218h-14.498v4.875h2.192c1.767,0,2.193,0.914,2.193,2.619v25.403
	c0,1.707-0.427,2.62-2.193,2.62h-1.611c-1.767,0-2.193-0.913-2.193-2.62V13.099h-15.109v4.874h2.804
	c1.766,0,2.192,0.913,2.192,2.619v13.523c0,1.707-0.427,2.62-2.192,2.62h-1.673c-1.768,0-2.194-0.913-2.194-2.62V22.54
	c0-6.335-2.314-10.355-9.26-10.355c-4.936,0-7.797,1.705-10.478,5.604h-0.123v-4.69h-14.316v4.874h2.498
	c1.768,0,2.194,0.913,2.194,2.619v13.523c0,0.747-0.083,1.341-0.322,1.774c0.029-0.427,0.049-0.869,0.049-1.348v-3.351h-3.35v1.401
	c0,3.41-0.671,4.203-2.012,4.203c-0.973,0-1.155-0.67-1.155-2.436V23.029c0-8.896-4.509-10.845-12.855-10.845
	c-3.479,0-9.072,0.487-12.073,3.142c-1.121-2.028-3.535-3.142-5.987-3.142c-2.559,0-4.813,1.096-6.701,2.742
	c-2.802-1.646-5.971-2.742-9.26-2.742c-4.688,0-9.764,1.834-12.144,5.688c-0.583-3.357-3.46-5.688-6.831-5.688
	c-3.595,0-5.909,2.863-7.128,5.788h-0.121v-4.874H78.61v3.404c-2.813-2.824-6.902-4.318-11.664-4.318
	c-9.077,0-15.717,5.422-15.717,15.169c0,3.811,1.019,6.956,2.796,9.382h-1.058c-1.767,0-2.193-0.913-2.193-2.62V22.54
	c0-6.335-2.315-10.355-9.26-10.355c-4.934,0-7.798,1.705-10.478,5.604h-0.122v-4.69H16.598v4.874h2.498
	c1.767,0,2.194,0.913,2.194,2.619v13.523c0,1.707-0.427,2.62-2.194,2.62h-1.794c-1.767,0-2.193-0.913-2.193-2.62V13.099H0v4.874
	h2.802c1.767,0,2.192,0.913,2.192,2.619v13.523c0,1.707-0.425,2.62-2.192,2.62h-2.62v4.874h34.875v-4.874h-1.461
	c-1.767,0-2.194-0.913-2.194-2.62v-11.27c0-2.56,1.767-5.179,4.569-5.179c4.143,0,4.691,2.438,4.691,5.97v10.479
	c0,1.707-0.427,2.62-2.193,2.62h-1.279v4.874h18.094v-3.401c2.813,2.827,6.902,4.325,11.664,4.325c4.762,0,8.851-1.498,11.664-4.325
	v3.401h19.496v-4.874h-2.498c-1.767,0-2.194-0.913-2.194-2.62V23.211c0-2.984,2.071-7.066,5.24-7.066
	c0.792,0,1.341,0.061,1.951,0.67c-2.011,0.365-3.168,1.645-3.168,3.717c0,2.802,2.315,4.02,4.874,4.02
	c1.363,0,2.527-0.638,3.379-1.585c0.012,4.352,1.292,7.2,4.143,9.2c-3.23,1.28-5.24,2.559-5.24,6.215c0,2.679,2.315,4.7,4.63,5.492
	v0.122c-2.377,0.427-5.117,1.705-5.117,4.569c0,4.508,6.579,5.971,15.352,5.971c9.504,0,17.789-1.523,17.789-9.139
	c0-6.346-5.421-7.626-10.66-7.626h-12.368c-0.975,0-3.106-0.67-3.106-2.192c0-0.914,0.608-1.584,1.218-1.768
	c1.95,0.793,4.143,1.035,6.214,1.035c7.555,0,14.013-3.531,14.013-11.513c0-2.192-1.036-4.447-2.134-6.274
	c2.072-2.376,4.794-1.675,5.24-1.28c-0.975,0.791-1.705,1.707-1.705,3.046c0,1.95,1.339,3.473,3.35,3.473
	c0.855,0,1.605-0.149,2.238-0.433c0.828,1.65,2.724,2.565,4.857,2.565c2.436,0,4.812-1.157,4.812-3.838
	c0-2.133-2.01-3.106-3.837-3.351v-0.122c1.461-0.914,3.168-1.158,4.812-1.158c3.351,0,5.909,1.341,5.909,5.361
	c0,7.979-18.094,1.218-18.094,12.732c0,6.214,3.596,8.479,9.381,8.479c3.962,0,6.885-1.351,9.383-4.336
	c0.975,2.925,3.839,4.336,6.762,4.336c2.54,0,4.45-0.269,5.849-0.924h17.269v-4.874h-1.463c-1.766,0-2.192-0.913-2.192-2.62v-11.27
	c0-2.56,1.768-5.179,4.569-5.179c4.143,0,4.69,2.438,4.69,5.97v10.479c0,1.707-0.425,2.62-2.192,2.62h-1.28v4.874h49.037v-4.874
	h-0.975c-1.767,0-2.193-0.549-2.193-2.62V33.02l4.631-3.899l3.29,5.483c0.304,0.487,0.487,0.914,0.487,1.339
	c0,0.487-0.244,0.793-1.22,0.793h-1.704v4.874h18.458v-4.874H257.067z M66.947,37.649c-3.655,0-4.934-3.107-4.934-10.296
	s1.279-10.295,4.934-10.295c3.656,0,4.934,3.106,4.934,10.295S70.603,37.649,66.947,37.649z M83.302,34.115
	c0,1.707-0.426,2.62-2.193,2.62h-1.24c1.778-2.426,2.796-5.571,2.796-9.382c0-3.812-1.02-6.959-2.798-9.381h1.242
	c1.768,0,2.193,0.913,2.193,2.619V34.115z M120.857,45.457c5.117,0,9.199,0.366,9.199,2.498c0,1.767-4.082,2.498-9.199,2.498
	s-9.199-0.731-9.199-2.498C111.658,45.823,115.74,45.457,120.857,45.457z M119.092,31.069c-2.681,0-3.535-3.046-3.535-7.554
	c0-4.509,0.854-7.615,3.535-7.615c2.68,0,3.532,3.106,3.532,7.615C122.624,28.023,121.771,31.069,119.092,31.069z M155.977,31.679
	c0,2.559-0.914,5.117-4.387,5.117c-1.889,0-3.473-0.913-3.473-3.411c0-3.777,4.935-4.144,7.859-5.849V31.679z M213.236,10.601
	c2.985,0,5.301-2.315,5.301-5.3c0-2.985-2.315-5.301-5.301-5.301s-5.3,2.315-5.3,5.301C207.937,8.285,210.251,10.601,213.236,10.601
	z M9.808,10.601c2.985,0,5.3-2.315,5.3-5.3c0-2.985-2.315-5.301-5.3-5.301s-5.3,2.315-5.3,5.301
	C4.507,8.285,6.822,10.601,9.808,10.601z"/>
<g>
	<path fill="#8BC53F" d="M142.811,48.238c0-0.633-0.354-1.012-0.986-1.012h-1.567v-2.225h10.594c4.146,0,6.6,1.289,6.6,4.753
		s-2.453,4.778-7.105,4.778h-2.78v3.995c0,0.632,0.354,1.012,0.985,1.012h1.694v2.225h-9.962V59.54h1.542
		c0.633,0,0.986-0.38,0.986-1.012V48.238z M147.564,52.309h2.174c1.77,0,2.958-0.961,2.958-2.528s-1.138-2.554-2.554-2.554h-2.578
		V52.309z"/>
	<path fill="#8BC53F" d="M158.541,48.238c0-0.633-0.354-1.012-0.986-1.012h-1.567v-2.225h11.656c3.539,0,5.638,1.391,5.638,4.096
		c0,2.401-1.618,3.489-3.817,3.792v0.051c1.896,0.531,2.958,1.138,2.958,3.211v2.655c0,0.48,0.177,0.859,0.859,0.859
		c0.657,0,0.835-0.784,0.835-1.567v-1.012h1.693v0.86c0,2.452-0.859,4.323-4.121,4.323c-2.401,0-4.02-1.188-4.02-4.146v-2.073
		c0-1.518-0.253-1.871-2.301-1.871h-2.073v4.349c0,0.632,0.354,1.012,0.985,1.012h1.567v2.225h-9.835V59.54h1.542
		c0.633,0,0.986-0.38,0.986-1.012V48.238z M163.295,51.954h2.427c1.871,0,2.807-0.404,2.807-2.427c0-1.871-1.087-2.301-3.413-2.301
		h-1.82V51.954z"/>
	<path fill="#8BC53F" d="M193.109,53.396c0,5.486-3.616,8.875-9.179,8.875c-5.562,0-9.178-3.389-9.178-8.875
		s3.616-8.899,9.178-8.899C189.493,44.496,193.109,47.909,193.109,53.396z M180.239,53.396c0,4.425,1.163,6.523,3.691,6.523
		c2.529,0,3.691-2.099,3.691-6.523s-1.162-6.548-3.691-6.548C181.402,46.848,180.239,48.971,180.239,53.396z"/>
	<path fill="#8BC53F" d="M194.023,48.238c0-0.633-0.354-1.012-0.986-1.012h-1.517v-2.225h9.178c5.739,0,9.456,2.503,9.456,8.521
		c0,5.765-3.641,8.242-9.607,8.242h-9.001V59.54h1.491c0.632,0,0.986-0.38,0.986-1.012V48.238z M198.776,59.54h1.163
		c3.338,0,4.854-1.163,4.854-6.17c0-5.006-1.517-6.144-4.854-6.144h-1.163V59.54z"/>
	<path fill="#8BC53F" d="M208.769,45.002h9.861v2.225h-1.568c-0.632,0-0.985,0.379-0.985,1.012v8.925
		c0,1.618,0.885,2.756,2.933,2.756c2.933,0,3.438-1.289,3.438-4.425v-7.256c0-0.633-0.354-1.012-0.986-1.012h-1.491v-2.225h7.712
		v2.225h-1.492c-0.632,0-0.986,0.379-0.986,1.012v8.115c0,3.742-1.997,5.917-6.7,5.917c-4.449,0-7.181-1.416-7.181-5.664v-8.368
		c0-0.633-0.354-1.012-0.985-1.012h-1.568V45.002z"/>
	<path fill="#8BC53F" d="M240.353,44.773h2.275v6.878h-2.352c0-2.604-1.416-4.804-4.272-4.804c-2.807,0-4.324,2.022-4.324,6.522
		c0,3.995,0.986,6.549,4.526,6.549c2.654,0,4.07-2.2,4.07-4.551h2.352c-0.076,4.652-2.832,6.902-7.509,6.902
		c-5.234,0-8.926-2.983-8.926-8.9c0-5.36,3.691-8.874,8.597-8.874c1.264,0,3.944,0.632,5.057,1.693L240.353,44.773z"/>
	<path fill="#8BC53F" d="M244.25,48.238c0-0.633-0.354-1.012-0.986-1.012h-1.567v-2.225h16.813v6.422h-2.351
		c0-3.642-1.416-4.197-4.652-4.197h-2.503v4.829h0.783c1.467,0,1.997-0.581,1.997-2.149v-0.556h2.099v7.636h-2.099v-0.607
		c0-0.936-0.354-2.099-1.264-2.099h-1.517v5.26h3.084c2.655,0,4.071-0.557,4.071-4.627h2.351v6.852h-16.788V59.54h1.542
		c0.633,0,0.986-0.38,0.986-1.012V48.238z"/>
</g>
</svg>
